<svg width="43" height="37" viewBox="0 0 43 37" fill="none" xmlns="http://www.w3.org/2000/svg">
<rect x="17.5718" y="30.9138" width="7.8096" height="5.88781" rx="2.9439" fill="#4C3A27"/>
<mask id="path-2-inside-1_77_360" fill="white">
<path d="M21.4763 0C23.6329 0 25.3816 1.74871 25.3816 3.90527V4.85059C33.2066 6.62632 39.0485 13.624 39.0486 21.9863V25.4424C39.0486 26.8359 37.9186 27.9656 36.5251 27.9658H6.42847C5.03486 27.9658 3.90503 26.836 3.90503 25.4424V21.9863C3.90507 13.6238 9.74678 6.62613 17.572 4.85059V3.90527C17.572 1.74885 19.3199 0.000225458 21.4763 0Z"/>
</mask>
<path d="M21.4763 0L21.4763 -3L21.476 -3L21.4763 0ZM25.3816 4.85059H22.3816V7.24607L24.7177 7.7762L25.3816 4.85059ZM39.0486 21.9863L42.0486 21.9863L42.0486 21.9863L39.0486 21.9863ZM36.5251 27.9658L36.5251 30.9658L36.5256 30.9658L36.5251 27.9658ZM3.90503 21.9863L0.905029 21.9863V21.9863H3.90503ZM17.572 4.85059L18.2358 7.77622L20.572 7.24614V4.85059H17.572ZM21.4763 0V3C21.976 3 22.3816 3.40557 22.3816 3.90527H25.3816H28.3816C28.3816 0.0918574 25.2897 -3 21.4763 -3V0ZM25.3816 3.90527H22.3816V4.85059H25.3816H28.3816V3.90527H25.3816ZM25.3816 4.85059L24.7177 7.7762C31.2064 9.24871 36.0486 15.0557 36.0486 21.9863L39.0486 21.9863L42.0486 21.9863C42.0485 12.1923 35.2067 4.00394 26.0455 1.92497L25.3816 4.85059ZM39.0486 21.9863H36.0486V25.4424H39.0486H42.0486V21.9863H39.0486ZM39.0486 25.4424H36.0486C36.0486 25.1786 36.2621 24.9659 36.5247 24.9658L36.5251 27.9658L36.5256 30.9658C39.5751 30.9654 42.0486 28.4931 42.0486 25.4424H39.0486ZM36.5251 27.9658V24.9658H6.42847V27.9658V30.9658H36.5251V27.9658ZM6.42847 27.9658V24.9658C6.69172 24.9658 6.90503 25.1791 6.90503 25.4424H3.90503H0.905029C0.905029 28.4928 3.37801 30.9658 6.42847 30.9658V27.9658ZM3.90503 25.4424H6.90503V21.9863H3.90503H0.905029V25.4424H3.90503ZM3.90503 21.9863L6.90503 21.9863C6.90506 15.0554 11.747 9.24854 18.2358 7.77622L17.572 4.85059L16.9082 1.92495C7.74657 4.00372 0.905078 12.1922 0.905029 21.9863L3.90503 21.9863ZM17.572 4.85059H20.572V3.90527H17.572H14.572V4.85059H17.572ZM17.572 3.90527H20.572C20.572 3.40504 20.9775 3.00005 21.4766 3L21.4763 0L21.476 -3C17.6624 -2.9996 14.572 0.0926613 14.572 3.90527H17.572Z" fill="#4C3A27" mask="url(#path-2-inside-1_77_360)"/>
<path d="M0 32.0706C0 30.619 1.17681 29.4421 2.62848 29.4421H40.3243C41.776 29.4421 42.9528 30.619 42.9528 32.0706V32.0706C42.9528 32.2448 42.8116 32.386 42.6374 32.386H0.315418C0.141217 32.386 0 32.2448 0 32.0706V32.0706Z" fill="#4C3A27"/>
</svg>
