<svg width="36" height="37" viewBox="0 0 36 37" fill="none" xmlns="http://www.w3.org/2000/svg">
<mask id="path-1-inside-1_77_356" fill="white">
<path d="M14.6964 1.51294C16.3455 -0.504204 19.4291 -0.504269 21.0782 1.51294C22.1023 2.76568 23.7909 3.29686 25.3546 2.8811C27.8503 2.21776 30.3725 4.00632 30.5069 6.58521C30.591 8.1954 31.6348 9.6098 33.1427 10.1809C35.5586 11.0956 36.5353 14.0258 35.1153 16.1838C34.2302 17.5295 34.2302 19.2728 35.1153 20.6184C36.5353 22.7765 35.5586 25.7066 33.1427 26.6213C31.6348 27.1925 30.5909 28.6068 30.5069 30.217C30.3725 32.7959 27.8503 34.5845 25.3546 33.9211C23.7909 33.5054 22.1023 34.0366 21.0782 35.2893C19.4291 37.3064 16.3455 37.3064 14.6964 35.2893C13.6723 34.0366 11.9838 33.5054 10.42 33.9211C7.92429 34.5846 5.40211 32.796 5.26768 30.217C5.18367 28.6066 4.13911 27.1923 2.63097 26.6213C0.215149 25.7066 -0.761567 22.7764 0.65831 20.6184C1.54378 19.2726 1.54375 17.5296 0.65831 16.1838C-0.761576 14.0258 0.215171 11.0957 2.63097 10.1809C4.13908 9.60992 5.18363 8.19558 5.26768 6.58521C5.40211 4.00625 7.92428 2.21763 10.42 2.8811C11.9838 3.29686 13.6723 2.76568 14.6964 1.51294ZM17.8878 11.9836C14.3044 11.9836 11.3986 14.8568 11.3985 18.4006C11.3985 21.9445 14.3043 24.8176 17.8878 24.8176C21.4711 24.8174 24.3761 21.9444 24.3761 18.4006C24.376 14.857 21.471 11.9839 17.8878 11.9836Z"/>
</mask>
<path d="M14.6964 1.51294L12.3738 -0.385917L12.3737 -0.385777L14.6964 1.51294ZM21.0782 1.51294L23.4009 -0.385777L23.4009 -0.385848L21.0782 1.51294ZM25.3546 2.8811L24.584 -0.0182296L24.5837 -0.0181704L25.3546 2.8811ZM30.5069 6.58521L27.511 6.74137L27.511 6.74159L30.5069 6.58521ZM33.1427 10.1809L32.0801 12.9864L32.0804 12.9866L33.1427 10.1809ZM35.1153 16.1838L32.6092 14.5349L32.609 14.5352L35.1153 16.1838ZM35.1153 20.6184L32.609 22.2671L32.6092 22.2674L35.1153 20.6184ZM33.1427 26.6213L32.0804 23.8157L32.08 23.8158L33.1427 26.6213ZM30.5069 30.217L27.511 30.0607L27.511 30.0609L30.5069 30.217ZM25.3546 33.9211L24.5837 36.8204L24.584 36.8205L25.3546 33.9211ZM21.0782 35.2893L23.4008 37.1881L23.4009 37.188L21.0782 35.2893ZM14.6964 35.2893L12.3737 37.188L12.3739 37.1882L14.6964 35.2893ZM10.42 33.9211L11.1908 36.8204L11.1909 36.8204L10.42 33.9211ZM5.26768 30.217L8.26362 30.0609L8.26361 30.0608L5.26768 30.217ZM2.63097 26.6213L1.56861 29.4269L1.56872 29.427L2.63097 26.6213ZM0.65831 20.6184L-1.84786 18.9694L-1.84787 18.9695L0.65831 20.6184ZM0.65831 16.1838L3.16452 14.5349L3.16448 14.5349L0.65831 16.1838ZM2.63097 10.1809L1.56872 7.37527L1.56858 7.37532L2.63097 10.1809ZM5.26768 6.58521L8.26361 6.74158L8.26362 6.74137L5.26768 6.58521ZM10.42 2.8811L11.1909 -0.0181704L11.1908 -0.0181945L10.42 2.8811ZM17.8878 11.9836L17.888 8.98364H17.8878V11.9836ZM11.3985 18.4006L8.39854 18.4006V18.4006H11.3985ZM17.8878 24.8176L17.8878 27.8176L17.888 27.8176L17.8878 24.8176ZM24.3761 18.4006L27.3761 18.4006L27.3761 18.4006L24.3761 18.4006ZM14.6964 1.51294L17.019 3.4118C17.4678 2.86277 18.3069 2.86288 18.7556 3.41173L21.0782 1.51294L23.4009 -0.385848C20.5513 -3.87142 15.2233 -3.87117 12.3738 -0.385917L14.6964 1.51294ZM21.0782 1.51294L18.7555 3.41166C20.5387 5.59293 23.4445 6.49317 26.1254 5.78038L25.3546 2.8811L24.5837 -0.0181704C24.1372 0.100554 23.666 -0.061561 23.4009 -0.385777L21.0782 1.51294ZM25.3546 2.8811L26.1252 5.78044C26.8301 5.59309 27.4785 6.11802 27.511 6.74137L30.5069 6.58521L33.5029 6.42904C33.2665 1.89462 28.8705 -1.15756 24.584 -0.0182296L25.3546 2.8811ZM30.5069 6.58521L27.511 6.74159C27.6579 9.55447 29.473 11.999 32.0801 12.9864L33.1427 10.1809L34.2053 7.3754C33.7967 7.22065 33.5241 6.83633 33.5029 6.42882L30.5069 6.58521ZM33.1427 10.1809L32.0804 12.9866C32.7325 13.2334 32.9542 14.0105 32.6092 14.5349L35.1153 16.1838L37.6215 17.8328C40.1163 14.0411 38.3848 8.95779 34.2049 7.37527L33.1427 10.1809ZM35.1153 16.1838L32.609 14.5352C31.0657 16.8813 31.0656 19.9209 32.609 22.2671L35.1153 20.6184L37.6217 18.9697C37.3948 18.6247 37.3947 18.1776 37.6217 17.8325L35.1153 16.1838ZM35.1153 20.6184L32.6092 22.2674C32.9542 22.7918 32.7325 23.5688 32.0804 23.8157L33.1427 26.6213L34.2049 29.427C38.3848 27.8445 40.1163 22.7612 37.6215 18.9694L35.1153 20.6184ZM33.1427 26.6213L32.08 23.8158C29.473 24.8033 27.6578 27.2477 27.511 30.0607L30.5069 30.217L33.5029 30.3733C33.5241 29.966 33.7966 29.5816 34.2053 29.4268L33.1427 26.6213ZM30.5069 30.217L27.511 30.0609C27.4785 30.6842 26.8301 31.2092 26.1252 31.0218L25.3546 33.9211L24.584 36.8205C28.8705 37.9598 33.2665 34.9076 33.5029 30.3732L30.5069 30.217ZM25.3546 33.9211L26.1254 31.0219C23.4445 30.3091 20.5387 31.2093 18.7555 33.3906L21.0782 35.2893L23.4009 37.188C23.666 36.8638 24.1372 36.7017 24.5837 36.8204L25.3546 33.9211ZM21.0782 35.2893L18.7556 33.3905C18.307 33.9393 17.4678 33.9394 17.0189 33.3904L14.6964 35.2893L12.3739 37.1882C15.2233 40.6733 20.5513 40.6736 23.4008 37.1881L21.0782 35.2893ZM14.6964 35.2893L17.0191 33.3906C15.236 31.2093 12.3301 30.3091 9.64918 31.0219L10.42 33.9211L11.1909 36.8204C11.6374 36.7017 12.1087 36.8638 12.3737 37.188L14.6964 35.2893ZM10.42 33.9211L9.64929 31.0218C8.94458 31.2092 8.29612 30.6844 8.26362 30.0609L5.26768 30.217L2.27175 30.3732C2.50811 34.9076 6.904 37.96 11.1908 36.8204L10.42 33.9211ZM5.26768 30.217L8.26361 30.0608C8.11681 27.2466 6.30002 24.8027 3.69321 23.8157L2.63097 26.6213L1.56872 29.427C1.97821 29.582 2.25054 29.9666 2.27176 30.3733L5.26768 30.217ZM2.63097 26.6213L3.69332 23.8157C3.04117 23.5688 2.81956 22.7916 3.16449 22.2674L0.65831 20.6184L-1.84787 18.9695C-4.34269 22.7612 -2.61087 27.8444 1.56861 29.4269L2.63097 26.6213ZM0.65831 20.6184L3.16448 22.2674C4.70842 19.9208 4.70832 16.8814 3.16452 14.5349L0.65831 16.1838L-1.8479 17.8328C-1.62082 18.1779 -1.62085 18.6244 -1.84786 18.9694L0.65831 20.6184ZM0.65831 16.1838L3.16448 14.5349C2.81958 14.0107 3.04114 13.2335 3.69335 12.9865L2.63097 10.1809L1.56858 7.37532C-2.6108 8.95791 -4.34274 14.041 -1.84786 17.8328L0.65831 16.1838ZM2.63097 10.1809L3.69321 12.9866C6.30005 11.9996 8.11673 9.55555 8.26361 6.74158L5.26768 6.58521L2.27176 6.42883C2.25053 6.83561 1.9781 7.22027 1.56872 7.37527L2.63097 10.1809ZM5.26768 6.58521L8.26362 6.74137C8.29612 6.11781 8.94459 5.59307 9.64927 5.7804L10.42 2.8811L11.1908 -0.0181945C6.90397 -1.15782 2.5081 1.8947 2.27175 6.42904L5.26768 6.58521ZM10.42 2.8811L9.64918 5.78038C12.3301 6.49317 15.236 5.59293 17.0191 3.41166L14.6964 1.51294L12.3737 -0.385777C12.1087 -0.0615609 11.6374 0.100554 11.1909 -0.0181704L10.42 2.8811ZM17.8878 11.9836V8.98364C12.6793 8.98364 8.39868 13.1684 8.39854 18.4006L11.3985 18.4006L14.3985 18.4007C14.3986 16.5453 15.9295 14.9836 17.8878 14.9836V11.9836ZM11.3985 18.4006H8.39854C8.39854 23.633 12.6794 27.8176 17.8878 27.8176V24.8176V21.8176C15.9293 21.8176 14.3985 20.256 14.3985 18.4006H11.3985ZM17.8878 24.8176L17.888 27.8176C23.0965 27.8173 27.3761 23.6325 27.3761 18.4006H24.3761H21.3761C21.3761 20.2562 19.8456 21.8175 17.8876 21.8176L17.8878 24.8176ZM24.3761 18.4006L27.3761 18.4006C27.3759 13.1689 23.0965 8.98397 17.888 8.98364L17.8878 11.9836L17.8876 14.9836C19.8455 14.9838 21.376 16.5451 21.3761 18.4007L24.3761 18.4006Z" fill="#4C3A27" mask="url(#path-1-inside-1_77_356)"/>
</svg>
